HIERARCHY
ROOT Hips
{
	OFFSET 0.000000 89.005402 0.000000
	CHANNELS 6 Xposition Yposition Zposition Xrotation Yrotation Zrotation
	JOINT Spine
	{
		OFFSET 0.116900 10.681000 0.373400
		CHANNELS 3 Xrotation Yrotation Zrotation
		JOINT Spine1
		{
			OFFSET 0.000000 13.840401 0.053500
			CHANNELS 3 Xrotation Yrotation Zrotation
			JOINT Spine2
			{
				OFFSET 0.000000 14.712700 -0.366200
				CHANNELS 3 Xrotation Yrotation Zrotation
				JOINT Neck
				{
					OFFSET 0.000000 35.415497 -3.314200
					CHANNELS 3 Xrotation Yrotation Zrotation
					JOINT Head
					{
						OFFSET 0.000000 16.899200 1.218300
						CHANNELS 3 Xrotation Yrotation Zrotation
						JOINT HeadTop_End
						{
							OFFSET 0.000000 22.206207 2.192500
							CHANNELS 3 Xrotation Yrotation Zrotation
							End Site
							{
								OFFSET 0.000000 22.314178 0.000000
							}
						}
					}
				}
				JOINT LeftShoulder
				{
					OFFSET 12.896400 26.716293 -4.548400
					CHANNELS 3 Xrotation Yrotation Zrotation
					JOINT LeftArm
					{
						OFFSET 19.027000 -4.857010 -1.718400
						CHANNELS 3 Xrotation Yrotation Zrotation
						JOINT LeftForeArm
						{
							OFFSET 24.179897 0.000000 0.000000
							CHANNELS 3 Xrotation Yrotation Zrotation
							JOINT LeftHand
							{
								OFFSET 27.156403 0.000000 0.000000
								CHANNELS 3 Xrotation Yrotation Zrotation
								JOINT LeftHandIndex1
								{
									OFFSET 16.441200 0.000000 0.000000
									CHANNELS 3 Xrotation Yrotation Zrotation
									JOINT LeftHandIndex2
									{
										OFFSET 4.821899 0.000000 0.000000
										CHANNELS 3 Xrotation Yrotation Zrotation
										JOINT LeftHandIndex3
										{
											OFFSET 6.386497 0.000000 0.000000
											CHANNELS 3 Xrotation Yrotation Zrotation
											JOINT LeftHandIndex4
											{
												OFFSET 5.188988 0.000000 0.000000
												CHANNELS 3 Xrotation Yrotation Zrotation
												End Site
												{
													OFFSET -0.178703 5.185913 0.000177
												}
											}
										}
									}
								}
								JOINT LeftHandThumb1
								{
									OFFSET 6.534897 -5.032593 5.900300
									CHANNELS 3 Xrotation Yrotation Zrotation
									JOINT LeftHandThumb2
									{
										OFFSET 3.818176 -2.204422 2.204423
										CHANNELS 3 Xrotation Yrotation Zrotation
										JOINT LeftHandThumb3
										{
											OFFSET 3.252098 -1.877594 1.877601
											CHANNELS 3 Xrotation Yrotation Zrotation
											JOINT LeftHandThumb4
											{
												OFFSET 5.251778 -3.032120 3.032117
												CHANNELS 3 Xrotation Yrotation Zrotation
												End Site
												{
													OFFSET 0.000023 6.780014 0.000000
												}
											}
										}
									}
								}
							}
						}
					}
				}
				JOINT RightShoulder
				{
					OFFSET -12.896300 26.716293 -4.548400
					CHANNELS 3 Xrotation Yrotation Zrotation
					JOINT RightArm
					{
						OFFSET -19.027000 -4.857010 -1.718400
						CHANNELS 3 Xrotation Yrotation Zrotation
						JOINT RightForeArm
						{
							OFFSET -24.179897 0.000000 0.000000
							CHANNELS 3 Xrotation Yrotation Zrotation
							JOINT RightHand
							{
								OFFSET -27.156403 0.000000 0.000000
								CHANNELS 3 Xrotation Yrotation Zrotation
								JOINT RightHandThumb1
								{
									OFFSET -6.591202 -4.852203 5.988100
									CHANNELS 3 Xrotation Yrotation Zrotation
									JOINT RightHandThumb2
									{
										OFFSET -3.818176 -2.204422 2.204423
										CHANNELS 3 Xrotation Yrotation Zrotation
										JOINT RightHandThumb3
										{
											OFFSET -3.252098 -1.877594 1.877601
											CHANNELS 3 Xrotation Yrotation Zrotation
											JOINT RightHandThumb4
											{
												OFFSET -5.251778 -3.032120 3.032117
												CHANNELS 3 Xrotation Yrotation Zrotation
												End Site
												{
													OFFSET -0.000023 6.780014 0.000000
												}
											}
										}
									}
								}
								JOINT RightHandIndex1
								{
									OFFSET -16.029404 0.000000 0.000000
									CHANNELS 3 Xrotation Yrotation Zrotation
									JOINT RightHandIndex2
									{
										OFFSET -5.213303 0.000000 0.000000
										CHANNELS 3 Xrotation Yrotation Zrotation
										JOINT RightHandIndex3
										{
											OFFSET -6.386528 0.000000 0.000000
											CHANNELS 3 Xrotation Yrotation Zrotation
											JOINT RightHandIndex4
											{
												OFFSET -5.189026 0.000000 0.000000
												CHANNELS 3 Xrotation Yrotation Zrotation
												End Site
												{
													OFFSET 0.236702 5.183624 0.001972
												}
											}
										}
									}
								}
							}
						}
					}
				}
			}
		}
	}
	JOINT LeftUpLeg
	{
		OFFSET 14.073000 -7.904099 -1.463000
		CHANNELS 3 Xrotation Yrotation Zrotation
		JOINT LeftLeg
		{
			OFFSET -0.109806 -34.073280 4.093200
			CHANNELS 3 Xrotation Yrotation Zrotation
			JOINT LeftFoot
			{
				OFFSET 0.109806 -29.899420 -6.319000
				CHANNELS 3 Xrotation Yrotation Zrotation
				JOINT LeftToeBase
				{
					OFFSET 1.551100 -14.988700 20.535801
					CHANNELS 3 Xrotation Yrotation Zrotation
					JOINT LeftToe_End
					{
						OFFSET 0.221200 0.570800 13.248301
						CHANNELS 3 Xrotation Yrotation Zrotation
						End Site
						{
							OFFSET 0.000000 13.262435 0.000000
						}
					}
				}
			}
		}
	}
	JOINT RightUpLeg
	{
		OFFSET -13.839300 -7.904099 -1.463000
		CHANNELS 3 Xrotation Yrotation Zrotation
		JOINT RightLeg
		{
			OFFSET 0.109694 -34.073219 4.093300
			CHANNELS 3 Xrotation Yrotation Zrotation
			JOINT RightFoot
			{
				OFFSET -0.109694 -29.899384 -6.319200
				CHANNELS 3 Xrotation Yrotation Zrotation
				JOINT RightToeBase
				{
					OFFSET -1.551100 -14.988700 20.535801
					CHANNELS 3 Xrotation Yrotation Zrotation
					JOINT RightToe_End
					{
						OFFSET -0.221200 0.570900 13.248299
						CHANNELS 3 Xrotation Yrotation Zrotation
						End Site
						{
							OFFSET 0.000000 13.262440 0.000000
						}
					}
				}
			}
		}
	}
}
MOTION
Frames: 4
Frame Time: 0.033333
-5.136521 71.838211 13.621197 -155.975197 -172.900310 -182.371952 13.476105 11.800222 -10.276616 1.256149 2.467913 -3.230745 1.329816 2.385134 -3.283231 17.914046 -2.760004 -9.457554 -13.068527 -12.922118 14.996322 0.000000 -0.000000 -0.000000 0.904063 -11.815490 7.125400 -72.920732 -53.455871 -99.007717 0.000012 -51.657547 0.000029 -42.285438 38.799743 44.528565 6.360629 8.827175 -47.484937 0.937621 3.473903 -30.200467 1.143373 3.804800 -33.441026 -0.000000 -0.000000 0.000001 39.198083 -24.603846 -12.103222 3.851683 33.576462 13.979574 -6.956168 30.885238 2.585801 0.000000 0.000001 0.000003 3.216196 32.885158 -9.828259 -43.586811 -10.521399 29.838132 -0.000016 60.454312 0.000022 -67.358458 -6.126294 -4.871170 28.980315 2.192883 7.868402 14.052622 -12.644033 -2.215579 9.616683 -27.238632 -10.258533 0.000003 -0.000002 0.000004 8.287576 -9.666572 53.050499 1.991609 -4.875374 44.420484 0.567602 -2.756255 23.268482 0.000003 0.000001 -0.000006 -80.492085 -12.682959 -3.631629 49.008735 -4.869661 10.214038 8.939627 -10.240935 -11.227519 -6.788923 0.022041 -1.546172 -0.000000 -0.000001 -0.000000 -2.229715 -15.157996 -6.402011 48.131165 -8.140434 9.675444 -6.659375 -28.680866 35.637369 -24.113945 -1.648506 11.573654 -0.000001 0.000001 -0.000000 
-5.940960 72.211403 15.038483 -152.892173 -176.409019 -180.888531 14.851516 13.733573 -11.070993 2.016300 2.925392 -3.478117 2.104536 2.842298 -3.520170 15.455494 -3.158876 -8.059289 -12.601405 -18.534302 15.558819 0.000000 0.000000 -0.000000 0.327779 -8.433304 5.821602 -61.400723 -50.494059 -91.884657 0.000023 -54.972217 0.000012 -47.030446 42.517105 36.630892 6.360628 8.827172 -47.484937 0.937623 3.473902 -30.200467 1.143372 3.804799 -33.441023 -0.000001 0.000001 -0.000002 39.198083 -24.603847 -12.103217 3.851683 33.576462 13.979570 -6.956165 30.885241 2.585800 -0.000000 0.000000 0.000002 2.591641 37.056112 -6.588958 -42.387908 -3.232909 32.943836 0.000003 54.597069 -0.000016 -61.383648 -13.734299 -10.529407 28.980318 2.192881 7.868404 14.052626 -12.644033 -2.215580 9.616688 -27.238636 -10.258533 0.000003 -0.000002 0.000002 8.287577 -9.666573 53.050499 1.991610 -4.875374 44.420480 0.567600 -2.756254 23.268475 -0.000003 -0.000002 -0.000000 -81.180234 -11.496870 -5.542491 45.164913 -5.073988 10.162755 9.401340 -11.762513 -12.696584 -6.356419 0.014361 -1.150644 0.000000 -0.000001 -0.000000 -0.736170 -13.726644 -3.673696 41.668033 -9.327741 9.803045 -8.311274 -32.698581 34.659706 -22.954077 -1.508748 11.185888 0.000000 -0.000001 -0.000000 
-6.636747 72.561317 16.569347 -149.209198 -179.494803 -179.858784 16.493829 15.153782 -11.827086 2.612538 3.330476 -3.323792 2.694116 3.257746 -3.356910 11.517009 -3.565490 -7.854854 -13.190175 -24.247805 15.626768 0.000002 -0.000001 -0.000001 -0.046514 -5.110660 4.457321 -43.519783 -46.013355 -79.030589 0.000016 -62.340427 0.000010 -50.611067 49.538344 29.622175 6.360629 8.827173 -47.484937 0.937620 3.473904 -30.200470 1.143371 3.804797 -33.441023 -0.000000 0.000000 -0.000000 39.198087 -24.603844 -12.103219 3.851680 33.576459 13.979573 -6.956170 30.885241 2.585798 -0.000000 0.000002 -0.000001 1.928770 41.649172 -4.041551 -39.777799 0.864089 38.216476 -0.000014 54.331105 0.000012 -55.758277 -19.379308 -21.057472 28.980318 2.192884 7.868401 14.052619 -12.644034 -2.215581 9.616685 -27.238634 -10.258535 -0.000000 -0.000000 -0.000001 8.287576 -9.666571 53.050499 1.991610 -4.875372 44.420480 0.567596 -2.756251 23.268477 -0.000000 0.000001 0.000000 -81.970623 -10.397884 -6.804062 41.079790 -5.127426 9.966816 9.052057 -13.580097 -13.868477 -5.345905 -0.001211 0.134261 -0.000000 0.000001 -0.000000 -0.375436 -11.660064 -1.483631 35.065334 -10.425800 9.700271 -8.502546 -34.345852 34.337236 -24.416905 -1.430759 10.487806 -0.000001 -0.000003 0.000000 
-7.161887 72.744774 18.089420 -145.223468 -182.729799 -179.425586 18.417074 16.140562 -12.372230 2.988973 3.686639 -2.860620 3.046553 3.629037 -2.896905 7.434999 -4.047185 -8.398514 -15.167190 -30.002979 14.913489 0.000000 0.000000 0.000000 -0.211594 -1.810464 2.980282 -25.917037 -39.828356 -68.604018 -0.000017 -66.823893 -0.000016 -47.823588 51.803017 19.326130 6.360629 8.827175 -47.484940 0.937621 3.473902 -30.200467 1.143369 3.804799 -33.441026 0.000002 0.000000 0.000002 39.198083 -24.603846 -12.103221 3.851683 33.576469 13.979574 -6.956165 30.885245 2.585798 -0.000000 -0.000004 0.000001 0.866989 46.098886 -0.990390 -36.493899 3.865193 46.073738 -0.000037 52.663091 0.000035 -50.293466 -20.613909 -29.134992 28.980315 2.192885 7.868404 14.052623 -12.644035 -2.215578 9.616685 -27.238632 -10.258534 0.000000 -0.000001 0.000000 8.287576 -9.666572 53.050493 1.991608 -4.875375 44.420477 0.567597 -2.756248 23.268481 0.000001 -0.000000 0.000002 -82.919378 -9.191197 -8.135671 37.240889 -4.784355 9.548645 7.464508 -15.490657 -13.619768 -3.684231 -0.000020 -0.000004 0.000000 -0.000002 -0.000000 -1.217849 -9.762144 -0.078277 29.619713 -11.014527 9.275105 -7.411186 -34.446106 34.496130 -29.255387 -1.511637 8.172992 0.000001 0.000000 0.000000 
